<?xml version="1.0" encoding="UTF-8"?>
<svg version="1.1" xmlns="http://www.w3.org/2000/svg" width="500" height="500">
<path d="M0 0 C165 0 330 0 500 0 C500 165 500 330 500 500 C335 500 170 500 0 500 C0 335 0 170 0 0 Z " fill="#191919" transform="translate(0,0)"/>
<path d="M0 0 C165 0 330 0 500 0 C500 165 500 330 500 500 C335 500 170 500 0 500 C0 335 0 170 0 0 Z M28 28 C28 174.52 28 321.04 28 472 C174.52 472 321.04 472 472 472 C472 325.48 472 178.96 472 28 C325.48 28 178.96 28 28 28 Z " fill="#1A1A1A" transform="translate(0,0)"/>
<path d="M0 0 C146.52 0 293.04 0 444 0 C444 146.52 444 293.04 444 444 C297.48 444 150.96 444 0 444 C0 297.48 0 150.96 0 0 Z M23 23 C23 154.34 23 285.68 23 421 C154.34 421 285.68 421 421 421 C421 289.66 421 158.32 421 23 C289.66 23 158.32 23 23 23 Z " fill="#FAFAFA" transform="translate(28,28)"/>
<path d="M0 0 C2.09994432 0.0160934 4.19796503 0.00006472 6.29785156 -0.01904297 C23.31467299 -0.04598418 38.15506108 5.1699657 51.10253906 16.39111328 C61.04879749 26.4313521 69.10253906 40.93167629 69.10253906 55.39111328 C61.18253906 55.39111328 53.26253906 55.39111328 45.10253906 55.39111328 C44.42191406 53.12236328 43.74128906 50.85361328 43.04003906 48.51611328 C39.53496191 37.69364522 34.40451983 29.76451257 24.10253906 24.39111328 C13.37844055 19.33745647 -0.82596158 18.43227035 -12.27246094 21.51611328 C-25.06774815 26.13962042 -32.59604259 33.81986009 -38.54125977 45.89379883 C-43.78957638 57.23469364 -45.02908014 69.6607847 -45.10058594 82.02001953 C-45.10628601 82.81278793 -45.11198608 83.60555634 -45.11785889 84.42234802 C-45.12723583 86.09038999 -45.13381346 87.75844987 -45.13769531 89.42651367 C-45.14734466 91.92352344 -45.17841495 94.41968832 -45.20996094 96.91650391 C-45.34998766 118.09987279 -41.40389839 137.21984712 -26.52246094 153.20361328 C-17.31994204 161.91423807 -5.60382403 164.96739987 6.79003906 164.82861328 C7.7468457 164.82104004 8.70365234 164.8134668 9.68945312 164.80566406 C21.65773449 164.53046189 35.23735399 162.25629835 44.10253906 153.39111328 C44.26288381 150.36324774 44.3622187 147.35507336 44.41894531 144.32470703 C44.43759644 143.51972778 44.45624756 142.71474854 44.47546387 141.88537598 C44.54397314 138.86657107 44.60398647 135.8475782 44.66503906 132.82861328 C44.80941406 126.08423828 44.95378906 119.33986328 45.10253906 112.39111328 C31.24253906 112.39111328 17.38253906 112.39111328 3.10253906 112.39111328 C3.10253906 105.79111328 3.10253906 99.19111328 3.10253906 92.39111328 C24.88253906 92.39111328 46.66253906 92.39111328 69.10253906 92.39111328 C69.28816406 103.23986328 69.47378906 114.08861328 69.66503906 125.26611328 C69.78794312 130.37635986 69.78794312 130.37635986 69.91333008 135.58984375 C69.93963376 138.31263037 69.96256345 141.03545257 69.98144531 143.75830078 C70.01672585 144.80003952 70.01672585 144.80003952 70.05271912 145.86282349 C70.29685529 153.46111851 70.10375645 159.16125837 64.86401367 165.13378906 C57.88683105 171.88321192 50.08892446 176.24149679 41.10253906 179.70361328 C40.47468506 179.9462793 39.84683105 180.18894531 39.19995117 180.43896484 C28.52594086 184.29759979 17.66482285 184.83222008 6.41503906 184.82861328 C5.70699127 184.82968079 4.99894348 184.83074829 4.2694397 184.83184814 C-6.5360872 184.80831435 -15.99053215 184.07281654 -25.89746094 179.39111328 C-26.91066406 178.93349609 -27.92386719 178.47587891 -28.96777344 178.00439453 C-35.53758646 174.73738942 -40.59633756 170.43152567 -45.89746094 165.39111328 C-46.22746094 171.00111328 -46.55746094 176.61111328 -46.89746094 182.39111328 C-52.98986787 182.81915124 -59.03156682 183.11303776 -65.13964844 182.97705078 C-66.14108887 182.95690918 -67.1425293 182.93676758 -68.17431641 182.91601562 C-71.51364726 182.27233969 -72.82922769 181.14266166 -75.08496094 178.64111328 C-76.0469268 176.56896326 -76.97991323 174.48331075 -77.89746094 172.39111328 C-79.80354905 169.26648763 -81.86188565 166.24494633 -83.89746094 163.20361328 C-85.03855387 161.44779349 -86.17649002 159.68991876 -87.31152344 157.93017578 C-90.95116379 152.30382345 -94.61002639 146.69014643 -98.27246094 141.07861328 C-99.54331509 139.1307102 -100.8141483 137.18279345 -102.08496094 135.23486328 C-103.03242188 133.78273438 -103.03242188 133.78273438 -103.99902344 132.30126953 C-105.86155214 129.44615867 -107.72338708 126.59059679 -109.58496094 123.73486328 C-116.14079172 113.67841373 -122.70259114 103.62589756 -129.27246094 93.57861328 C-129.97258301 92.50780518 -130.67270508 91.43699707 -131.39404297 90.33374023 C-134.72805912 85.23517222 -138.06317226 80.13733186 -141.40139771 75.04151917 C-142.945863 72.68369107 -144.48971452 70.32546141 -146.0335083 67.9671936 C-147.11434589 66.31668218 -148.19607493 64.66675462 -149.27783203 63.0168457 C-149.94121582 62.00340088 -150.60459961 60.98995605 -151.28808594 59.94580078 C-151.8659082 59.0639209 -152.44373047 58.18204102 -153.0390625 57.2734375 C-155.36253377 53.66979828 -157.62496204 50.02711152 -159.89746094 46.39111328 C-160.22746094 91.27111328 -160.55746094 136.15111328 -160.89746094 182.39111328 C-168.81746094 182.39111328 -176.73746094 182.39111328 -184.89746094 182.39111328 C-184.89746094 122.99111328 -184.89746094 63.59111328 -184.89746094 2.39111328 C-160.89746094 2.39111328 -160.89746094 2.39111328 -154.96777344 7.73486328 C-153.67837524 9.55860901 -153.67837524 9.55860901 -152.89599609 11.1784668 C-152.58913879 11.78457794 -152.28228149 12.39068909 -151.96612549 13.01516724 C-151.65471619 13.63422943 -151.34330688 14.25329163 -151.02246094 14.89111328 C-150.30365054 16.14857152 -149.5761589 17.40110462 -148.84033203 18.64868164 C-147.41219514 21.09689069 -146.03338715 23.56238222 -144.69824219 26.0625 C-142.48557982 30.1524456 -140.03836366 34.04689692 -137.52246094 37.95361328 C-136.76151559 39.18425397 -136.00238377 40.41601798 -135.24511719 41.64892578 C-132.09388995 46.72176516 -128.74734945 51.66439802 -125.4206543 56.62304688 C-122.0973528 61.58017687 -118.81865469 66.56258749 -115.58496094 71.57861328 C-109.38208343 81.19979481 -103.12492968 90.78521293 -96.86767578 100.37109375 C-94.87204187 103.43007659 -92.87858539 106.49046801 -90.88574219 109.55126953 C-90.22799805 110.56108887 -89.57025391 111.5709082 -88.89257812 112.61132812 C-87.65186214 114.51628797 -86.41158916 116.42153647 -85.171875 118.32714844 C-80.79317726 125.04762585 -76.34747537 131.71609163 -71.89746094 138.39111328 C-71.56746094 93.51111328 -71.23746094 48.63111328 -70.89746094 2.39111328 C-62.97746094 2.39111328 -55.05746094 2.39111328 -46.89746094 2.39111328 C-46.56746094 7.01111328 -46.23746094 11.63111328 -45.89746094 16.39111328 C-44.28871094 15.17423828 -42.67996094 13.95736328 -41.02246094 12.70361328 C-28.06871575 3.32788467 -15.95495649 -0.14518043 0 0 Z " fill="#FBFBFB" transform="translate(364.8974609375,161.60888671875)"/>
<path d="M0 0 C11.33987956 4.55714786 22.50059628 9.42992292 33.640625 14.45458984 C46.49117282 20.24495608 59.3993415 25.90236053 72.31054688 31.5559082 C77.20842914 33.70076148 82.10480535 35.84902019 87 38 C87.85660217 38.37606384 88.71320435 38.75212769 89.59576416 39.1395874 C92.12360011 40.2505961 94.64990917 41.36500358 97.17578125 42.48046875 C97.94955612 42.8201619 98.72333099 43.15985504 99.52055359 43.50984192 C104.88523601 45.88523601 104.88523601 45.88523601 106 47 C106.08631874 48.34267413 106.10706473 49.68974322 106.09765625 51.03515625 C106.09282227 52.24848633 106.09282227 52.24848633 106.08789062 53.48632812 C106.07532227 54.7615332 106.07532227 54.7615332 106.0625 56.0625 C106.05798828 56.91650391 106.05347656 57.77050781 106.04882812 58.65039062 C106.03700373 60.76695663 106.01906769 62.88348685 106 65 C89.12483926 72.93092212 72.10816138 80.50486839 55.02368164 87.97167969 C40.81545235 94.18444634 26.65514984 100.50021558 12.51660156 106.86987305 C11.36112823 107.3892318 11.36112823 107.3892318 10.18231201 107.91908264 C8.74087288 108.56699894 7.30012114 109.21644737 5.86016846 109.86766052 C1.11273146 112 1.11273146 112 0 112 C0 104.08 0 96.16 0 88 C8.99893458 83.50053271 8.99893458 83.50053271 12.19580078 82.26757812 C12.92021866 81.98587769 13.64463654 81.70417725 14.39100647 81.41394043 C15.53163795 80.97700867 15.53163795 80.97700867 16.6953125 80.53125 C17.51386215 80.21385864 18.3324118 79.89646729 19.17576599 79.56945801 C20.92254267 78.89248511 22.66997056 78.21719046 24.41799927 77.54345703 C29.00181891 75.77654992 33.58079597 73.99717561 38.16015625 72.21875 C39.07629196 71.86329102 39.99242767 71.50783203 40.93632507 71.14160156 C49.50006456 67.81496515 58.03662378 64.42234942 66.5625 61 C67.20809875 60.740979 67.85369751 60.48195801 68.51885986 60.21508789 C72.01358172 58.81255859 75.50732239 57.40761192 79 56 C76.39499375 54.26332917 74.25987972 53.21874485 71.37451172 52.09570312 C70.43437225 51.72771606 69.49423279 51.359729 68.52560425 50.98059082 C67.50395172 50.58480835 66.48229919 50.18902588 65.4296875 49.78125 C64.36122589 49.36387573 63.29276428 48.94650146 62.19192505 48.51647949 C58.75425341 47.17428274 55.31472637 45.83692113 51.875 44.5 C47.41344401 42.76200054 42.95268241 41.02197066 38.4921875 39.28125 C37.38953552 38.85126709 36.28688354 38.42128418 35.15081787 37.97827148 C23.40486654 33.39075383 11.70225251 28.69779957 0 24 C0 16.08 0 8.16 0 0 Z " fill="#FBFBFB" transform="translate(63,198)"/>
</svg>
